<svg width="30" height="30" viewBox="0 0 30 30" fill="none" xmlns="http://www.w3.org/2000/svg">
<path d="M25.5047 12H25.875C26.4984 12 27 11.4984 27 10.875V4.12499C27 3.67031 26.7281 3.25781 26.3063 3.08437C25.8844 2.91093 25.4016 3.00937 25.0781 3.32812L22.6547 5.75624C20.5781 4.03593 17.9062 2.99999 15 2.99999C8.95312 2.99999 3.95156 7.47187 3.12187 13.2891C3.00469 14.1094 3.57187 14.8687 4.39219 14.9859C5.2125 15.1031 5.97187 14.5312 6.08906 13.7156C6.7125 9.35156 10.4672 5.99999 15 5.99999C17.0813 5.99999 18.9938 6.70312 20.5172 7.88906L18.3281 10.0781C18.0047 10.4016 17.9109 10.8844 18.0844 11.3062C18.2578 11.7281 18.6703 12 19.125 12H25.5047ZM26.8828 16.7109C27 15.8906 26.4281 15.1312 25.6125 15.0141C24.7969 14.8969 24.0328 15.4687 23.9156 16.2844C23.2922 20.6437 19.5375 23.9953 15.0047 23.9953C12.9234 23.9953 11.0109 23.2922 9.4875 22.1062L11.6719 19.9219C11.9953 19.5984 12.0891 19.1156 11.9156 18.6937C11.7422 18.2719 11.3297 18 10.875 18H4.125C3.50156 18 3 18.5016 3 19.125V25.875C3 26.3297 3.27188 26.7422 3.69375 26.9156C4.11563 27.0891 4.59844 26.9906 4.92188 26.6719L7.35 24.2437C9.42188 25.9641 12.0938 27 15 27C21.0469 27 26.0484 22.5281 26.8781 16.7109H26.8828Z" fill="#116694"/>
</svg>
