<svg width="29" height="29" viewBox="0 0 29 29" fill="none" xmlns="http://www.w3.org/2000/svg">
<g clip-path="url(#clip0_93_10)">
<path d="M6.17759 8.51151C6.17759 5.57239 8.55815 3.19183 11.4973 3.19183C14.4364 3.19183 16.8169 5.57239 16.8169 8.51151C16.8169 11.4506 14.4364 13.8312 11.4973 13.8312C8.55815 13.8312 6.17759 11.4506 6.17759 8.51151ZM2.27649 24.2179C2.27649 19.8513 5.81408 16.3137 10.1806 16.3137H12.8139C17.1805 16.3137 20.718 19.8513 20.718 24.2179C20.718 24.9449 20.1285 25.5345 19.4014 25.5345H3.59311C2.86609 25.5345 2.27649 24.9449 2.27649 24.2179ZM24.2645 7.09293C24.8541 7.09293 25.3284 7.56727 25.3284 8.15687V10.2847H27.4563C28.0459 10.2847 28.5202 10.7591 28.5202 11.3487C28.5202 11.9383 28.0459 12.4126 27.4563 12.4126H25.3284V14.5405C25.3284 15.1301 24.8541 15.6044 24.2645 15.6044C23.6749 15.6044 23.2006 15.1301 23.2006 14.5405V12.4126H21.0727C20.4831 12.4126 20.0088 11.9383 20.0088 11.3487C20.0088 10.7591 20.4831 10.2847 21.0727 10.2847H23.2006V8.15687C23.2006 7.56727 23.6749 7.09293 24.2645 7.09293Z" fill="white"/>
</g>
<defs>
<clipPath id="clip0_93_10">
<rect width="28.3716" height="28.3716" fill="white" transform="translate(0.148438)"/>
</clipPath>
</defs>
</svg>
